<svg width="196" height="76" viewBox="0 0 196 76" fill="none" xmlns="http://www.w3.org/2000/svg">
<path d="M0 33C0 19.1929 11.1929 8 25 8H45V43C45 56.8071 33.8071 68 20 68H0V33Z" fill="#0EEA8D"/>
<path d="M23.5514 55C21.7274 55 20.1434 54.616 18.7994 53.848C17.4874 53.048 16.4634 51.976 15.7274 50.632C15.0234 49.256 14.6714 47.72 14.6714 46.024V21.4H19.2794V46.6C19.2794 47.848 19.6634 48.888 20.4314 49.72C21.2314 50.52 22.2714 50.92 23.5514 50.92H32.5754V55H23.5514Z" fill="#1A202C"/>
<path d="M51.9874 50V31.64H55.3354V50H51.9874ZM53.6794 28.724C53.0554 28.724 52.5274 28.508 52.0954 28.076C51.6634 27.62 51.4474 27.092 51.4474 26.492C51.4474 25.892 51.6634 25.376 52.0954 24.944C52.5274 24.488 53.0554 24.26 53.6794 24.26C54.2794 24.26 54.7954 24.488 55.2274 24.944C55.6834 25.376 55.9114 25.892 55.9114 26.492C55.9114 27.092 55.6834 27.62 55.2274 28.076C54.7954 28.508 54.2794 28.724 53.6794 28.724ZM60.5655 50V39.38C60.5655 37.748 60.9255 36.32 61.6455 35.096C62.3895 33.872 63.4095 32.924 64.7055 32.252C66.0015 31.556 67.4775 31.208 69.1335 31.208C70.8135 31.208 72.2895 31.556 73.5615 32.252C74.8575 32.924 75.8655 33.872 76.5855 35.096C77.3295 36.32 77.7015 37.748 77.7015 39.38V50H74.3895V39.416C74.3895 38.312 74.1375 37.364 73.6335 36.572C73.1535 35.756 72.5055 35.132 71.6895 34.7C70.8975 34.268 70.0455 34.052 69.1335 34.052C68.2215 34.052 67.3575 34.268 66.5415 34.7C65.7495 35.132 65.1015 35.756 64.5975 36.572C64.1175 37.364 63.8775 38.312 63.8775 39.416V50H60.5655ZM82.96 50V23.72H86.272V39.344H91.312L96.136 31.64H99.808L94.588 39.848C96.316 40.352 97.66 41.3 98.62 42.692C99.604 44.06 100.096 45.656 100.096 47.48V50H96.748V47.48C96.748 46.472 96.52 45.572 96.064 44.78C95.632 43.988 95.02 43.364 94.228 42.908C93.436 42.428 92.524 42.188 91.492 42.188H86.272V50H82.96ZM104.719 50V24.8H118.867C120.067 24.8 121.147 25.076 122.107 25.628C123.091 26.156 123.871 26.9 124.447 27.86C125.047 28.82 125.347 29.96 125.347 31.28C125.347 32.552 124.975 33.704 124.231 34.736C123.511 35.744 122.587 36.476 121.459 36.932C122.779 37.388 123.871 38.192 124.735 39.344C125.599 40.496 126.031 41.816 126.031 43.304C126.031 44.648 125.719 45.824 125.095 46.832C124.495 47.84 123.691 48.62 122.683 49.172C121.675 49.724 120.547 50 119.299 50H104.719ZM109.867 35.024H117.355C118.147 35.024 118.819 34.748 119.371 34.196C119.923 33.644 120.199 32.972 120.199 32.18C120.199 31.388 119.923 30.716 119.371 30.164C118.819 29.612 118.147 29.336 117.355 29.336H109.867V35.024ZM109.867 45.464H117.823C118.663 45.464 119.383 45.164 119.983 44.564C120.583 43.964 120.883 43.244 120.883 42.404C120.883 41.564 120.583 40.844 119.983 40.244C119.383 39.644 118.663 39.344 117.823 39.344H109.867V45.464ZM138.637 50.432C136.741 50.432 135.049 50.012 133.561 49.172C132.073 48.308 130.897 47.156 130.033 45.716C129.169 44.252 128.737 42.62 128.737 40.82C128.737 39.02 129.169 37.4 130.033 35.96C130.897 34.496 132.073 33.344 133.561 32.504C135.049 31.64 136.741 31.208 138.637 31.208C140.533 31.208 142.225 31.64 143.713 32.504C145.201 33.344 146.377 34.496 147.241 35.96C148.105 37.4 148.537 39.02 148.537 40.82C148.537 42.62 148.105 44.252 147.241 45.716C146.377 47.156 145.201 48.308 143.713 49.172C142.225 50.012 140.533 50.432 138.637 50.432ZM138.637 46.22C140.149 46.22 141.337 45.704 142.201 44.672C143.089 43.616 143.533 42.332 143.533 40.82C143.533 39.308 143.089 38.036 142.201 37.004C141.337 35.948 140.149 35.42 138.637 35.42C137.125 35.42 135.925 35.948 135.037 37.004C134.173 38.036 133.741 39.308 133.741 40.82C133.741 42.332 134.173 43.616 135.037 44.672C135.925 45.704 137.125 46.22 138.637 46.22ZM160.961 50.432C159.065 50.432 157.373 50.012 155.885 49.172C154.397 48.308 153.221 47.156 152.357 45.716C151.493 44.252 151.061 42.62 151.061 40.82C151.061 39.02 151.493 37.4 152.357 35.96C153.221 34.496 154.397 33.344 155.885 32.504C157.373 31.64 159.065 31.208 160.961 31.208C162.857 31.208 164.549 31.64 166.037 32.504C167.525 33.344 168.701 34.496 169.565 35.96C170.429 37.4 170.861 39.02 170.861 40.82C170.861 42.62 170.429 44.252 169.565 45.716C168.701 47.156 167.525 48.308 166.037 49.172C164.549 50.012 162.857 50.432 160.961 50.432ZM160.961 46.22C162.473 46.22 163.661 45.704 164.525 44.672C165.413 43.616 165.857 42.332 165.857 40.82C165.857 39.308 165.413 38.036 164.525 37.004C163.661 35.948 162.473 35.42 160.961 35.42C159.449 35.42 158.249 35.948 157.361 37.004C156.497 38.036 156.065 39.308 156.065 40.82C156.065 42.332 156.497 43.616 157.361 44.672C158.249 45.704 159.449 46.22 160.961 46.22ZM174.465 50V23.72H179.397V38.66H182.313L186.741 31.64H192.141L187.101 39.416C188.661 40.064 189.873 41.06 190.737 42.404C191.601 43.748 192.033 45.248 192.033 46.904V50H187.101V46.904C187.101 46.16 186.909 45.488 186.525 44.888C186.165 44.264 185.685 43.772 185.085 43.412C184.485 43.052 183.813 42.872 183.069 42.872H179.397V50H174.465Z" fill="#1A202C"/>
</svg>
