<svg width="570" height="511" viewBox="0 0 570 511" fill="none" xmlns="http://www.w3.org/2000/svg">
<g clip-path="url(#clip0)">
<path d="M503.894 97.6107C523.935 126.821 519.5 164.66 519.5 164.66C519.5 164.66 482.574 155.141 462.534 125.931C442.494 96.7206 446.929 58.8808 446.929 58.8808C446.929 58.8808 483.854 68.4002 503.894 97.6107Z" fill="#2F2E41"/>
<g filter="url(#filter0_d)">
<path d="M285 505.755C442.401 505.755 570 448.056 570 376.881C570 305.706 442.401 248.007 285 248.007C127.599 248.007 0 305.706 0 376.881C0 448.056 127.599 505.755 285 505.755Z" fill="#0AEC98"/>
</g>
<path d="M489.475 103.188C491.82 138.523 518.738 165.511 518.738 165.511C518.738 165.511 541.853 135.209 539.509 99.8743C537.164 64.539 510.246 37.5511 510.246 37.5511C510.246 37.5511 487.13 67.8529 489.475 103.188Z" fill="#0AEC98"/>
<path d="M259.392 0.728427L531.473 137.387C533.735 138.523 535.612 140.301 536.867 142.498C538.122 144.695 538.701 147.212 538.531 149.736L522.723 383.661C522.652 384.71 522.322 385.725 521.762 386.616C521.203 387.507 520.432 388.245 519.517 388.766C518.603 389.286 517.573 389.572 516.52 389.599C515.468 389.624 514.426 389.389 513.487 388.915L235.201 247.031L249.488 6.43091C249.555 5.30072 249.902 4.20487 250.498 3.2418C251.094 2.27872 251.92 1.47859 252.901 0.913236C253.883 0.347885 254.991 0.035032 256.123 0.00277536C257.256 -0.0294813 258.379 0.219867 259.392 0.728427Z" fill="#D0CDE1"/>
<path d="M262.523 5.49531L527.921 138.797C530.128 139.905 531.958 141.64 533.183 143.782C534.407 145.925 534.972 148.381 534.805 150.843L519.386 379.022C519.317 380.045 518.995 381.036 518.449 381.904C517.904 382.773 517.151 383.494 516.259 384.002C515.367 384.509 514.363 384.788 513.337 384.814C512.31 384.839 511.293 384.61 510.376 384.148L238.927 245.748L252.862 11.0578C252.928 9.95529 253.267 8.88638 253.848 7.94695C254.429 7.00753 255.235 6.22705 256.192 5.67558C257.15 5.12412 258.23 4.81895 259.335 4.78748C260.44 4.75602 261.536 4.99924 262.523 5.49531Z" fill="#3F3D56"/>
<path d="M274.154 23.2009L514.729 144.035C516.73 145.039 518.389 146.611 519.499 148.554C520.609 150.496 521.121 152.723 520.97 154.954L506.993 361.792C506.93 362.719 506.638 363.617 506.144 364.404C505.649 365.193 504.967 365.845 504.158 366.305C503.35 366.765 502.439 367.019 501.509 367.042C500.578 367.064 499.657 366.858 498.826 366.438L252.765 240.983L265.397 28.243C265.456 27.2437 265.763 26.2748 266.29 25.4232C266.817 24.5717 267.547 23.8641 268.416 23.3643C269.284 22.8644 270.262 22.5878 271.264 22.5592C272.266 22.5308 273.259 22.7512 274.154 23.2009Z" fill="white"/>
<path d="M25.9169 362.136L298.346 499.201C300.881 500.475 303.68 501.137 306.518 501.133C309.356 501.129 312.153 500.46 314.685 499.18L516.22 396.974C518.583 394.613 518.253 391.115 517.497 388.488C517.13 387.217 516.631 385.986 516.007 384.819L488.544 370.389L257.64 255.294L243.845 247.978C240.193 246.046 236.126 245.028 231.993 245.011C227.861 244.995 223.786 245.98 220.118 247.882L25.8317 348.705C24.5955 349.344 23.5604 350.311 22.8406 351.501C22.1208 352.691 21.7445 354.057 21.7534 355.447C21.7622 356.837 22.1558 358.198 22.8906 359.378C23.6254 360.559 24.6728 361.514 25.9169 362.136Z" fill="#D0CDE1"/>
<path opacity="0.1" d="M25.9168 362.136L298.346 499.201C300.881 500.475 303.68 501.137 306.518 501.133C309.356 501.129 312.153 500.46 314.685 499.18L516.22 396.974C518.583 394.613 518.253 391.115 517.497 388.488L316.565 492.826C314.113 494.1 311.394 494.775 308.631 494.799C305.868 494.823 303.138 494.193 300.665 492.962L21.8506 354.193C21.5884 355.777 21.8419 357.404 22.5739 358.834C23.3058 360.263 24.4775 361.421 25.9168 362.136Z" fill="black"/>
<path opacity="0.1" d="M284.495 403.204L196.268 358.664C194.492 357.767 192.527 357.31 190.536 357.334C188.546 357.356 186.591 357.857 184.835 358.794L133.655 386.11C133.064 386.425 132.571 386.897 132.229 387.474C131.888 388.051 131.711 388.709 131.72 389.379C131.727 390.049 131.919 390.704 132.274 391.272C132.629 391.84 133.133 392.3 133.732 392.602L223.687 437.919C225.181 438.672 226.837 439.046 228.51 439.007C230.182 438.969 231.819 438.52 233.277 437.699L284.662 408.778C285.163 408.497 285.577 408.083 285.859 407.583C286.142 407.083 286.282 406.515 286.265 405.941C286.248 405.367 286.074 404.809 285.762 404.326C285.45 403.844 285.012 403.455 284.495 403.204Z" fill="black"/>
<path opacity="0.1" d="M492.281 395.755L397.342 446.142C396.25 446.722 395.034 447.031 393.796 447.043C392.56 447.056 391.338 446.771 390.234 446.214L121.989 310.694C121.233 310.312 120.598 309.727 120.156 309.006C119.714 308.284 119.482 307.453 119.485 306.607C119.489 305.761 119.728 304.933 120.177 304.215C120.625 303.497 121.264 302.918 122.023 302.543L214.735 256.7C216.132 256.01 217.671 255.653 219.23 255.658C220.789 255.663 222.325 256.031 223.717 256.732L492.24 391.894C492.596 392.073 492.896 392.347 493.107 392.685C493.318 393.023 493.432 393.413 493.436 393.812C493.441 394.21 493.336 394.602 493.132 394.945C492.928 395.288 492.634 395.568 492.281 395.755Z" fill="black"/>
<path d="M340.821 144.467L340.346 145.418L427.631 189.018L428.108 188.067L340.821 144.467Z" fill="#0AEC98"/>
<path d="M340.813 157.254L340.329 158.2L427.639 202.818L428.123 201.871L340.813 157.254Z" fill="#0AEC98"/>
<path d="M356.796 181.682L356.312 182.629L406.334 208.165L406.819 207.217L356.796 181.682Z" fill="#0AEC98"/>
<path d="M259.567 81.3262L251.857 99.645L316.933 133.77L338.857 69.6745" fill="#F2F2F2"/>
<path d="M315.434 122.531L344.182 54.9529L278.108 22.4707L250.358 88.406L315.434 122.531Z" fill="#0AEC98"/>
<path d="M276.546 48.313L276.062 49.2601L326.084 74.7952L326.569 73.848L276.546 48.313Z" fill="white"/>
<path d="M272.796 57.3042L272.312 58.2513L322.334 83.7868L322.819 82.8389L272.796 57.3042Z" fill="white"/>
<path d="M196.724 265.854L194.874 281.081L205.357 280.031L206.59 267.43L196.724 265.854Z" fill="#FFB9B9"/>
<path d="M168.974 150.339C168.974 150.339 115.324 194.445 149.241 208.097H159.724C159.724 208.097 182.541 176.065 193.641 176.592L196.724 207.046L194.874 268.48L208.441 269.005C208.441 269.005 216.457 238.026 215.841 220.698L230.025 156.639L168.974 150.339Z" fill="#2F2E41"/>
<path d="M152.323 205.997L159.723 208.097C159.723 208.097 188.706 202.321 190.554 202.847L196.292 202.812L196.105 190.244H171.44L152.323 205.997Z" fill="#2F2E41"/>
<path d="M206.59 277.932C206.59 277.932 195.49 273.73 193.64 277.932C191.79 282.132 192.407 294.209 192.407 294.209C193.886 296.63 194.323 299.417 193.64 302.084C192.407 306.285 198.574 308.386 206.59 306.285C214.607 304.185 214.607 298.934 214.607 298.934L206.59 277.932Z" fill="#2F2E41"/>
<path d="M215.84 189.191C215.84 189.191 224.474 184.991 223.857 191.292C223.345 195.453 222.097 199.525 220.156 203.368C220.156 203.368 228.173 221.221 220.156 222.796C212.14 224.371 205.972 220.696 205.972 218.07C205.972 215.444 215.84 189.191 215.84 189.191Z" fill="#2F2E41"/>
<path d="M188.706 45.3252L189.94 65.2782L200.423 73.153L212.141 58.9764V44.8002L188.706 45.3252Z" fill="#FFB9B9"/>
<path d="M196.723 65.2777L189.664 60.8113L185.006 66.8527L164.04 77.3536L176.372 104.657L176.989 131.436C176.989 131.436 154.172 151.388 167.739 154.013C181.306 156.639 229.406 162.414 231.873 157.689C234.339 152.964 228.79 104.132 228.79 104.132L230.639 62.6515L212.141 56.9563L196.723 65.2777Z" fill="#3F3D56"/>
<path d="M159.106 98.5331C159.106 98.5331 154.172 128.284 163.423 128.284C168.916 128.3 174.361 127.408 179.456 125.659L172.056 109.382L175.139 98.3555L159.106 98.5331Z" fill="#FFB9B9"/>
<path d="M173.29 124.611L180.073 125.661C180.073 125.661 199.807 115.16 201.04 114.634C202.273 114.108 181.306 105.183 181.306 105.183L167.122 109.908L173.29 124.611Z" fill="#FFB9B9"/>
<path opacity="0.1" d="M181.307 105.183L172.399 108.15L175.14 98.357L159.107 98.5323C159.107 98.5323 154.173 128.283 163.423 128.283C168.917 128.3 174.362 127.408 179.457 125.659L179.411 125.555L180.074 125.659C180.074 125.659 199.807 115.158 201.04 114.632C202.273 114.106 181.307 105.183 181.307 105.183Z" fill="black"/>
<path d="M202.973 55.2811C212.698 55.2811 220.582 48.5682 220.582 40.2876C220.582 32.007 212.698 25.2943 202.973 25.2943C193.247 25.2943 185.363 32.007 185.363 40.2876C185.363 48.5682 193.247 55.2811 202.973 55.2811Z" fill="#FFB9B9"/>
<path d="M187.404 23.3729L183.963 22.2003C183.963 22.2003 191.157 15.4567 201.166 16.0432L198.35 13.4043C198.35 13.4043 205.232 11.0586 211.487 17.2158C214.775 20.4508 218.58 24.2569 220.955 28.5425H224.639L223.101 31.4254L228.482 34.3098L222.957 33.7916C223.481 36.2808 223.301 38.8401 222.435 41.2587L222.583 43.5391C222.583 43.5391 216.179 35.1031 216.179 33.9306V36.8628C216.179 36.8628 212.739 34.2239 212.739 32.4648L210.863 34.5171L209.921 31.2869L198.349 34.5118L200.225 31.8729L193.031 32.7528L195.847 29.5279C195.847 29.5279 187.715 33.3393 187.402 36.5647C187.088 39.7902 183.023 43.8944 183.023 43.8944L181.146 40.9622C181.146 40.9622 178.334 27.7708 187.404 23.3729Z" fill="#2F2E41"/>
<path d="M218.306 89.431C215.194 92.7046 213.458 96.7708 213.373 100.982L180.689 99.9327C180.689 99.9327 172.056 98.8823 172.056 104.133V109.383C172.056 109.383 176.373 107.808 178.839 109.383C181.306 110.958 207.823 124.611 220.773 119.36C233.723 114.109 236.807 93.6314 236.807 93.6314C236.807 93.6314 225.09 85.2299 218.306 89.431Z" fill="#FFB9B9"/>
<path d="M225.71 63.177L230.643 62.652C230.643 62.652 240.51 63.7021 239.276 79.9797C238.043 96.2568 237.427 97.3065 237.427 97.3065C237.427 97.3065 224.477 87.33 215.227 92.0564L225.71 63.177Z" fill="#3F3D56"/>
<path d="M166.506 77.3558H164.04C160.843 80.7927 159.105 85.0485 159.106 89.4325C159.049 94.1274 158.325 98.7998 156.948 103.346L176.373 100.459L166.506 77.3558Z" fill="#3F3D56"/>
</g>
<defs>
<filter id="filter0_d" x="-4" y="248.007" width="578" height="266.748" filterUnits="userSpaceOnUse" color-interpolation-filters="sRGB">
<feFlood flood-opacity="0" result="BackgroundImageFix"/>
<feColorMatrix in="SourceAlpha" type="matrix" values="0 0 0 0 0 0 0 0 0 0 0 0 0 0 0 0 0 0 127 0"/>
<feOffset dy="5"/>
<feGaussianBlur stdDeviation="2"/>
<feColorMatrix type="matrix" values="0 0 0 0 0 0 0 0 0 0 0 0 0 0 0 0 0 0 0.25 0"/>
<feBlend mode="normal" in2="BackgroundImageFix" result="effect1_dropShadow"/>
<feBlend mode="normal" in="SourceGraphic" in2="effect1_dropShadow" result="shape"/>
</filter>
<clipPath id="clip0">
<rect width="570" height="511" fill="white"/>
</clipPath>
</defs>
</svg>
